HIERARCHY
ROOT Hips
{
	OFFSET 0.000000 0.000000 0.000000
	CHANNELS 6 Xposition Yposition Zposition Xrotation Yrotation Zrotation
	JOINT LeftUpLeg_virtual
	{
		OFFSET 0.000000 0.000000 0.000000
		CHANNELS 3 Xrotation Yrotation Zrotation
		JOINT LeftUpLeg
		{
			OFFSET 11.394100 -6.187798 -0.413800
			CHANNELS 3 Xrotation Yrotation Zrotation
			JOINT LeftLeg
			{
				OFFSET 0.430247 -32.302673 3.732800
				CHANNELS 3 Xrotation Yrotation Zrotation
				JOINT LeftFoot
				{
					OFFSET -0.430247 -48.264931 -6.423300
					CHANNELS 3 Xrotation Yrotation Zrotation
					JOINT LeftToeBase
					{
						OFFSET 4.230900 -16.068199 23.438400
						CHANNELS 3 Xrotation Yrotation Zrotation
						JOINT LeftToe_End
						{
							OFFSET 4.510700 0.695400 19.974600
							CHANNELS 3 Xrotation Yrotation Zrotation
							End Site
							{
								OFFSET 0 0 0
							}
						}
					}
				}
			}
		}
	}
	JOINT RightUpLeg_virtual
	{
		OFFSET 0.000000 0.000000 0.000000
		CHANNELS 3 Xrotation Yrotation Zrotation
		JOINT RightUpLeg
		{
			OFFSET -11.333700 -6.187798 -0.413800
			CHANNELS 3 Xrotation Yrotation Zrotation
			JOINT RightLeg
			{
				OFFSET -0.430392 -32.302628 3.733000
				CHANNELS 3 Xrotation Yrotation Zrotation
				JOINT RightFoot
				{
					OFFSET 0.430392 -48.264973 -6.423500
					CHANNELS 3 Xrotation Yrotation Zrotation
					JOINT RightToeBase
					{
						OFFSET -4.230900 -16.068199 23.438400
						CHANNELS 3 Xrotation Yrotation Zrotation
						JOINT RightToe_End
						{
							OFFSET -4.510700 0.695400 19.974600
							CHANNELS 3 Xrotation Yrotation Zrotation
							End Site
							{
								OFFSET 0 0 0
							}
						}
					}
				}
			}
		}
	}
	JOINT Spine_virtual
	{
		OFFSET 0.000000 0.000000 0.000000
		CHANNELS 3 Xrotation Yrotation Zrotation
		JOINT Spine
		{
			OFFSET -0.002400 12.777504 0.315300
			CHANNELS 3 Xrotation Yrotation Zrotation
			JOINT Spine1
			{
				OFFSET -0.002067 5.816869 0.032633
				CHANNELS 3 Xrotation Yrotation Zrotation
				JOINT Spine1_split
				{
					OFFSET -0.002067 5.816869 0.032633
					CHANNELS 3 Xrotation Yrotation Zrotation
					JOINT Spine2
					{
						OFFSET -0.002067 5.816869 0.032633
						CHANNELS 3 Xrotation Yrotation Zrotation
						JOINT Neck_virtual
						{
							OFFSET 0.000000 0.000000 0.000000
							CHANNELS 3 Xrotation Yrotation Zrotation
							JOINT Neck
							{
								OFFSET -0.003700 21.199493 -0.826900
								CHANNELS 3 Xrotation Yrotation Zrotation
								JOINT Head
								{
									OFFSET 0.000000 20.442200 4.834800
									CHANNELS 3 Xrotation Yrotation Zrotation
									JOINT HeadTop_End
									{
										OFFSET 0.000000 34.668396 4.968400
										CHANNELS 3 Xrotation Yrotation Zrotation
										End Site
										{
											OFFSET 0 0 0
										}
									}
								}
							}
						}
						JOINT LeftShoulder_virtual
						{
							OFFSET 0.000000 0.000000 0.000000
							CHANNELS 3 Xrotation Yrotation Zrotation
							JOINT LeftShoulder
							{
								OFFSET 3.288150 8.794197 -1.372250
								CHANNELS 3 Xrotation Yrotation Zrotation
								JOINT LeftShoulder_split
								{
									OFFSET 3.288150 8.794197 -1.372250
									CHANNELS 3 Xrotation Yrotation Zrotation
									JOINT LeftArm
									{
										OFFSET 11.953299 -2.279007 -0.146200
										CHANNELS 3 Xrotation Yrotation Zrotation
										JOINT LeftForeArm
										{
											OFFSET 18.448900 0.000000 0.000000
											CHANNELS 3 Xrotation Yrotation Zrotation
											JOINT LeftHand
											{
												OFFSET 29.527798 0.000000 0.000000
												CHANNELS 3 Xrotation Yrotation Zrotation
												End Site
												{
													OFFSET 0 0 0
												}
											}
										}
									}
								}
							}
						}
						JOINT RightShoulder_virtual
						{
							OFFSET 0.000000 0.000000 0.000000
							CHANNELS 3 Xrotation Yrotation Zrotation
							JOINT RightShoulder
							{
								OFFSET -3.249400 8.794197 -1.372250
								CHANNELS 3 Xrotation Yrotation Zrotation
								JOINT RightShoulder_split
								{
									OFFSET -3.249400 8.794197 -1.372250
									CHANNELS 3 Xrotation Yrotation Zrotation
									JOINT RightArm
									{
										OFFSET -11.953299 -2.279007 -0.146200
										CHANNELS 3 Xrotation Yrotation Zrotation
										JOINT RightForeArm
										{
											OFFSET -18.448900 0.000000 0.000000
											CHANNELS 3 Xrotation Yrotation Zrotation
											JOINT RightHand
											{
												OFFSET -29.527802 0.000000 0.000000
												CHANNELS 3 Xrotation Yrotation Zrotation
												End Site
												{
													OFFSET 0 0 0
												}
											}
										}
									}
								}
							}
						}
					}
				}
			}
		}
	}
}
MOTION
Frames: 6
Frame Time: 0.03333333
-1.298535 83.380501 -5.623655 0.000000 0.000000 0.000000 7.197448 -55.926402 7.584673 -50.515796 15.348601 27.572973 49.064640 -3.428929 -5.239786 -8.671241 15.221094 -6.175354 -0.504863 1.326521 -1.212093 0.000000 0.000000 0.000000 6.816796 -53.209680 6.844629 -26.056506 -11.515406 -20.725215 55.354776 19.846190 -5.724464 -33.256574 -14.279486 14.758258 -2.089241 11.937796 -19.700303 0.000000 0.000000 0.000000 4.979651 -51.038923 3.175688 7.284264 -2.124020 0.970749 3.980399 4.929070 -1.908970 -0.178604 -0.499647 -0.036227 0.000000 0.000000 0.000000 17.576397 6.805432 -1.654833 -2.445110 14.978499 10.861607 -31.786915 -1.281532 31.859499 0.000000 0.000000 0.000000 12.985551 6.679813 -3.266806 -20.130130 -1.426535 -8.430364 -5.014836 1.235316 -0.918689 18.503561 -20.728699 -10.307629 11.260488 -63.534959 -0.457295 0.000000 0.000000 0.000000 16.274039 5.724607 -5.958358 -21.674717 18.834527 12.053329 -11.100195 -10.122919 -4.626544 -9.180008 -1.318105 49.258320 78.230794 51.552980 -45.009273 0.000000 0.000000 0.000000 
-1.221390 83.384964 -5.555096 0.000000 0.000000 0.000000 7.225906 -56.511927 7.869849 -50.839837 15.468912 27.489792 49.520541 -3.297934 -5.136048 -8.508654 15.173180 -6.203675 -0.537182 1.344298 -1.272094 0.000000 0.000000 0.000000 7.060816 -54.033743 7.187651 -26.238197 -12.120568 -20.749532 55.195363 19.803211 -5.641714 -33.519102 -14.160487 14.136422 -1.468115 11.813555 -19.529024 0.000000 0.000000 0.000000 5.475531 -51.531554 4.081782 6.828670 -2.040953 0.778972 3.828780 4.956210 -1.937050 -0.116044 -0.528871 0.027654 0.000000 0.000000 0.000000 17.695675 6.808262 -1.593323 -1.566597 15.018635 10.588483 -32.091374 -1.577876 32.043218 0.000000 0.000000 0.000000 13.012834 6.748898 -3.253101 -19.818653 -1.811150 -8.094866 -4.817402 0.411656 -1.706426 19.459801 -21.799111 -10.919350 10.516787 -62.985655 -0.362779 0.000000 0.000000 0.000000 16.136262 5.596599 -6.087900 -20.954119 18.574826 12.007140 -9.723687 -9.065379 -3.617714 -9.094020 -1.368136 49.059999 76.687622 51.056163 -43.620020 0.000000 0.000000 0.000000 
-1.219965 83.411690 -5.506216 0.000000 0.000000 0.000000 7.161361 -56.864890 7.962302 -51.248091 15.468681 27.534361 49.773361 -3.158918 -5.019579 -8.430901 14.749220 -6.128667 -0.665916 1.304557 -1.213030 0.000000 0.000000 0.000000 7.273410 -54.713968 7.491369 -26.691131 -12.735727 -20.889116 55.471805 19.853164 -5.625158 -33.455438 -13.935665 13.934194 -2.593800 11.942526 -19.736045 0.000000 0.000000 0.000000 5.476692 -51.955415 4.660329 6.318882 -1.677134 0.625567 3.614380 5.166062 -1.894443 -0.075136 -0.417895 0.064768 0.000000 0.000000 0.000000 17.298914 6.948078 -1.649118 0.101746 14.693023 10.152750 -32.225311 -2.396268 31.572597 0.000000 0.000000 0.000000 12.734145 7.029445 -3.221203 -19.499043 -2.814858 -7.636050 -4.466368 -0.452971 -1.844796 20.483249 -23.752022 -12.094604 10.084076 -59.761731 0.181824 0.000000 0.000000 0.000000 16.162545 5.721822 -6.129736 -19.842273 17.964448 11.027428 -8.474094 -8.088554 -2.691354 -8.882058 -0.899190 48.497301 75.492114 51.463795 -43.088429 0.000000 0.000000 0.000000 
-1.289927 83.426476 -5.520653 0.000000 0.000000 0.000000 7.072119 -56.884295 7.856032 -51.899425 15.270239 27.816746 49.888357 -3.111032 -4.970498 -8.128791 13.941284 -6.316927 -1.212527 1.233884 -0.984164 0.000000 0.000000 0.000000 7.298867 -55.005023 7.600693 -27.282919 -13.277461 -21.087772 55.856683 19.999651 -5.680913 -33.512139 -13.651982 13.876370 -4.664765 12.188928 -20.313727 0.000000 0.000000 0.000000 5.002407 -52.230276 4.803903 6.009146 -1.174077 0.516662 3.410029 5.429305 -1.730562 -0.059144 -0.264253 0.046559 0.000000 0.000000 0.000000 16.546949 7.162820 -1.751675 2.170122 14.082575 9.762542 -32.351345 -3.472076 30.431368 0.000000 0.000000 0.000000 12.240662 7.371419 -3.069108 -19.172425 -4.385746 -7.055164 -4.347880 -1.031166 -2.051385 21.231694 -26.228154 -13.513809 9.601423 -54.533825 0.800519 0.000000 0.000000 0.000000 16.210836 6.011255 -5.978486 -18.312625 17.065023 9.152595 -7.816834 -7.662110 -2.077634 -8.525804 -0.110961 47.904915 74.803726 52.681871 -43.508558 0.000000 0.000000 0.000000 
-1.396903 83.417412 -5.614309 0.000000 0.000000 0.000000 6.959893 -56.707195 7.605235 -52.906085 14.719481 28.257541 50.184634 -3.169563 -5.006107 -7.325445 12.890769 -6.892964 -2.064561 1.169942 -0.612920 0.000000 0.000000 0.000000 7.198821 -54.939043 7.557108 -27.847822 -13.683472 -21.254038 56.390052 20.174601 -5.812561 -33.996734 -13.354913 13.615737 -6.047349 12.280236 -21.304726 0.000000 0.000000 0.000000 4.372911 -52.150274 4.761423 5.952629 -0.729742 0.417003 3.240468 5.580691 -1.440669 -0.051824 -0.118832 -0.005730 0.000000 0.000000 0.000000 15.676061 7.347427 -1.749538 4.384972 13.339454 9.536889 -32.733736 -4.451524 28.798977 0.000000 0.000000 0.000000 11.658118 7.601712 -2.796725 -18.785795 -6.367198 -6.467838 -4.193822 -0.345937 -2.829415 21.990463 -29.078233 -14.765556 8.757397 -48.246984 1.141337 0.000000 0.000000 0.000000 16.059428 6.331811 -5.559496 -16.436908 15.984278 6.711270 -7.437229 -7.215329 -1.717753 -8.268829 0.790681 47.758476 74.362496 54.222396 -44.421956 0.000000 0.000000 0.000000 
-1.526028 83.312965 -5.637699 0.000000 0.000000 0.000000 6.893252 -56.401517 7.313198 -54.185465 13.908776 28.699157 50.823219 -3.121846 -5.159909 -6.146641 11.939603 -7.509371 -2.515549 1.129503 -0.323476 0.000000 0.000000 0.000000 7.158227 -54.521459 7.477705 -28.350999 -13.897499 -21.363814 57.185885 20.327113 -5.972218 -34.693335 -13.163778 13.298649 -6.136206 12.113753 -22.684592 0.000000 0.000000 0.000000 3.786900 -51.720938 4.734138 5.984404 -0.498039 0.283929 3.101385 5.524653 -1.093180 -0.008812 0.020376 -0.051775 0.000000 0.000000 0.000000 14.918829 7.436132 -1.584477 6.651839 12.623948 9.493185 -33.428660 -4.911458 26.955463 0.000000 0.000000 0.000000 11.126134 7.618503 -2.482910 -18.315868 -8.515574 -6.028799 -3.928925 0.948750 -4.178290 23.346804 -31.586029 -15.250322 7.614216 -41.479230 1.205374 0.000000 0.000000 0.000000 15.572688 6.575524 -4.892407 -14.320204 14.842131 3.975063 -7.030199 -6.164371 -1.654071 -8.314471 1.808608 48.533419 73.534090 55.406457 -45.051344 0.000000 0.000000 0.000000 
